# xmcd
#
# Track frame offsets: 
#        150
#        20722
#        35358
#        53213
#        72113
#        88400
#        106262
#        125928
#        139568
#        157123
#        173919
#        190882
#        206494
#        223206
#        242558
#        262021
#
# Disc length: 3652 seconds
#
# Revision: 0
# Processed by: cddbd v1.5.2PL0 Copyright (c) Steve Scherf et al.
# Submitted via: ExactAudioCopy v0.99pb5
#
DISCID=f50e4210
DTITLE=Brian Burns - American Junkyard
DYEAR=2009
DGENRE=Country
TTITLE0=American Junkyard
TTITLE1=The KIng is in His Castle
TTITLE2=State of The Art
TTITLE3=Rattlesnake Tequila
TTITLE4=The End is Not in Sight
TTITLE5=Closer to The Truth
TTITLE6=J.D.'s Junk City
TTITLE7=An Afternoon at J.D.'s
TTITLE8=Upside Down
TTITLE9=Burnin' Gasoline
TTITLE10=To Make A Long Story Short
TTITLE11=Get Together
TTITLE12=Postcard From Jamaica
TTITLE13=Believe in You
TTITLE14=Along Old Fence Lines
TTITLE15=Fishin' Hole
EXTD=
EXTT0=
EXTT1=
EXTT2=
EXTT3=
EXTT4=
EXTT5=
EXTT6=
EXTT7=
EXTT8=
EXTT9=
EXTT10=
EXTT11=
EXTT12=
EXTT13=
EXTT14=
EXTT15=
PLAYORDER=
